<mxfile host="Electron" agent="Mozilla/5.0 (Macintosh; Intel Mac OS X 10_15_7) AppleWebKit/537.36 (KHTML, like Gecko) draw.io/26.0.9 Chrome/128.0.6613.186 Electron/32.2.5 Safari/537.36" version="26.0.9">
  <diagram id="O56nh55_KwBkuIIigyQI" name="ページ1">
    <mxGraphModel dx="916" dy="783" grid="1" gridSize="10" guides="1" tooltips="1" connect="1" arrows="1" fold="1" page="1" pageScale="1" pageWidth="710" pageHeight="460" background="#ffffff" math="1" shadow="0">
      <root>
        <mxCell id="0" />
        <mxCell id="1" parent="0" />
        <mxCell id="QsWMcLasebP6nHNVcm0e-35" value="" style="rounded=0;whiteSpace=wrap;html=1;fillColor=default;strokeColor=none;" vertex="1" parent="1">
          <mxGeometry x="10" y="10" width="690" height="440" as="geometry" />
        </mxCell>
        <mxCell id="2" value="" style="endArrow=classic;html=1;strokeColor=#000000;" parent="1" edge="1">
          <mxGeometry width="50" height="50" relative="1" as="geometry">
            <mxPoint x="123" y="404" as="sourcePoint" />
            <mxPoint x="123" y="64" as="targetPoint" />
          </mxGeometry>
        </mxCell>
        <mxCell id="3" value="" style="endArrow=classic;html=1;strokeColor=#000000;" parent="1" edge="1">
          <mxGeometry width="50" height="50" relative="1" as="geometry">
            <mxPoint x="93" y="374" as="sourcePoint" />
            <mxPoint x="503" y="374" as="targetPoint" />
          </mxGeometry>
        </mxCell>
        <mxCell id="6" value="`O`" style="text;html=1;strokeColor=none;fillColor=none;align=center;verticalAlign=middle;whiteSpace=wrap;rounded=0;fontColor=#000000;fontSize=24;" parent="1" vertex="1">
          <mxGeometry x="73" y="384" width="60" height="30" as="geometry" />
        </mxCell>
        <mxCell id="11" value="`x`" style="text;html=1;strokeColor=none;fillColor=none;align=center;verticalAlign=middle;whiteSpace=wrap;rounded=0;fontColor=#000000;fontSize=24;" parent="1" vertex="1">
          <mxGeometry x="293" y="404" width="60" height="30" as="geometry" />
        </mxCell>
        <mxCell id="12" value="`x+h`" style="text;html=1;strokeColor=none;fillColor=none;align=center;verticalAlign=middle;whiteSpace=wrap;rounded=0;fontColor=#000000;fontSize=24;" parent="1" vertex="1">
          <mxGeometry x="413" y="404" width="60" height="30" as="geometry" />
        </mxCell>
        <mxCell id="13" value="" style="endArrow=none;html=1;strokeColor=#000000;fontSize=24;fontColor=#000000;exitX=0;exitY=0;exitDx=0;exitDy=0;dashed=1;" parent="1" source="10" edge="1">
          <mxGeometry width="50" height="50" relative="1" as="geometry">
            <mxPoint x="323" y="54" as="sourcePoint" />
            <mxPoint x="323" y="394" as="targetPoint" />
          </mxGeometry>
        </mxCell>
        <mxCell id="10" value="" style="rounded=0;whiteSpace=wrap;html=1;fontSize=24;fontColor=#000000;fillColor=none;strokeColor=#FF0000;strokeWidth=3;" parent="1" vertex="1">
          <mxGeometry x="323" y="134" width="120" height="120" as="geometry" />
        </mxCell>
        <mxCell id="14" value="" style="endArrow=none;html=1;strokeColor=#000000;fontSize=24;fontColor=#000000;dashed=1;" parent="1" edge="1">
          <mxGeometry width="50" height="50" relative="1" as="geometry">
            <mxPoint x="443" y="134" as="sourcePoint" />
            <mxPoint x="443" y="394" as="targetPoint" />
          </mxGeometry>
        </mxCell>
        <mxCell id="15" value="" style="endArrow=none;html=1;strokeColor=#000000;fontSize=24;fontColor=#000000;dashed=1;" parent="1" edge="1">
          <mxGeometry width="50" height="50" relative="1" as="geometry">
            <mxPoint x="443" y="134" as="sourcePoint" />
            <mxPoint x="103" y="134" as="targetPoint" />
          </mxGeometry>
        </mxCell>
        <mxCell id="16" value="" style="endArrow=none;html=1;strokeColor=#000000;fontSize=24;fontColor=#000000;dashed=1;" parent="1" edge="1">
          <mxGeometry width="50" height="50" relative="1" as="geometry">
            <mxPoint x="443" y="254" as="sourcePoint" />
            <mxPoint x="103" y="254" as="targetPoint" />
          </mxGeometry>
        </mxCell>
        <mxCell id="17" value="`y`" style="text;html=1;strokeColor=none;fillColor=none;align=center;verticalAlign=middle;whiteSpace=wrap;rounded=0;fontColor=#000000;fontSize=24;" parent="1" vertex="1">
          <mxGeometry x="33" y="234" width="60" height="40" as="geometry" />
        </mxCell>
        <mxCell id="18" value="`y+h`" style="text;html=1;strokeColor=none;fillColor=none;align=center;verticalAlign=middle;whiteSpace=wrap;rounded=0;fontColor=#000000;fontSize=24;" parent="1" vertex="1">
          <mxGeometry x="23" y="114" width="70" height="40" as="geometry" />
        </mxCell>
        <mxCell id="19" value="" style="shape=flexArrow;endArrow=classic;html=1;strokeColor=#000000;fontSize=24;fontColor=#000000;" parent="1" edge="1">
          <mxGeometry width="50" height="50" relative="1" as="geometry">
            <mxPoint x="263" y="193.5" as="sourcePoint" />
            <mxPoint x="313" y="193.5" as="targetPoint" />
          </mxGeometry>
        </mxCell>
        <mxCell id="20" value="" style="shape=flexArrow;endArrow=classic;html=1;strokeColor=#000000;fontSize=24;fontColor=#000000;" parent="1" edge="1">
          <mxGeometry width="50" height="50" relative="1" as="geometry">
            <mxPoint x="453" y="193.5" as="sourcePoint" />
            <mxPoint x="503" y="193.5" as="targetPoint" />
          </mxGeometry>
        </mxCell>
        <mxCell id="23" value="" style="shape=flexArrow;endArrow=classic;html=1;strokeColor=#000000;fontSize=24;fontColor=#000000;" parent="1" edge="1">
          <mxGeometry width="50" height="50" relative="1" as="geometry">
            <mxPoint x="383" y="314" as="sourcePoint" />
            <mxPoint x="383" y="264" as="targetPoint" />
          </mxGeometry>
        </mxCell>
        <mxCell id="24" value="" style="shape=flexArrow;endArrow=classic;html=1;strokeColor=#000000;fontSize=24;fontColor=#000000;" parent="1" edge="1">
          <mxGeometry width="50" height="50" relative="1" as="geometry">
            <mxPoint x="382" y="124" as="sourcePoint" />
            <mxPoint x="382" y="74" as="targetPoint" />
          </mxGeometry>
        </mxCell>
        <mxCell id="25" value="`v_x(x,y)h`" style="text;html=1;strokeColor=none;fillColor=none;align=center;verticalAlign=middle;whiteSpace=wrap;rounded=0;fontColor=#000000;fontSize=20;" parent="1" vertex="1">
          <mxGeometry x="123" y="174" width="140" height="40" as="geometry" />
        </mxCell>
        <mxCell id="26" value="`v_x(x,y+h)h`" style="text;html=1;strokeColor=none;fillColor=none;align=center;verticalAlign=middle;whiteSpace=wrap;rounded=0;fontColor=#000000;fontSize=20;" parent="1" vertex="1">
          <mxGeometry x="493" y="174" width="210" height="40" as="geometry" />
        </mxCell>
        <mxCell id="28" value="`v_y(x,y)h`" style="text;html=1;strokeColor=none;fillColor=none;align=center;verticalAlign=middle;whiteSpace=wrap;rounded=0;fontColor=#000000;fontSize=20;" parent="1" vertex="1">
          <mxGeometry x="313" y="324" width="140" height="40" as="geometry" />
        </mxCell>
        <mxCell id="31" value="`v_y(x,y+h)h`" style="text;html=1;strokeColor=none;fillColor=none;align=center;verticalAlign=middle;whiteSpace=wrap;rounded=0;fontColor=#000000;fontSize=20;" parent="1" vertex="1">
          <mxGeometry x="273" y="24" width="230" height="40" as="geometry" />
        </mxCell>
        <mxCell id="35" value="`\Delta \rho (x,y)h^2`" style="text;html=1;strokeColor=none;fillColor=none;align=center;verticalAlign=middle;whiteSpace=wrap;rounded=0;fontColor=#000000;fontSize=20;" parent="1" vertex="1">
          <mxGeometry x="314" y="174" width="140" height="40" as="geometry" />
        </mxCell>
      </root>
    </mxGraphModel>
  </diagram>
</mxfile>
